<?xml version="1.0" standalone="no"?>
<!DOCTYPE svg PUBLIC "-//W3C//DTD SVG 20010904//EN"
 "http://www.w3.org/TR/2001/REC-SVG-20010904/DTD/svg10.dtd">
<svg version="1.0" xmlns="http://www.w3.org/2000/svg"
 width="1280.000000pt" height="1279.000000pt" viewBox="0 0 1280.000000 1279.000000"
 preserveAspectRatio="xMidYMid meet">
<metadata>
Created by potrace 1.15, written by Peter Selinger 2001-2017
</metadata>
<g transform="translate(0.000000,1279.000000) scale(0.100000,-0.100000)"
fill="#000000" stroke="none">
<path d="M6171 12688 c18 -24 43 -52 54 -63 31 -30 111 -191 144 -291 62 -185
87 -460 57 -630 -48 -276 -183 -537 -388 -749 -75 -79 -132 -126 -246 -202
-186 -126 -236 -146 -358 -146 -127 0 -177 24 -291 140 -76 78 -93 101 -140
199 -88 186 -106 251 -177 634 -9 46 -19 87 -24 92 -4 4 -5 -68 -4 -160 7
-329 -28 -557 -109 -714 -106 -202 -271 -306 -490 -307 -191 -2 -397 93 -594
273 -41 38 -230 171 -287 203 -18 10 -34 21 -36 26 -2 4 -10 7 -17 7 -7 0 -15
4 -17 9 -6 17 -101 80 -178 119 -41 21 -102 56 -135 77 -32 21 -101 58 -151
81 -96 45 -423 158 -432 149 -3 -3 -10 -1 -17 5 -31 26 -336 87 -555 111 -164
18 -553 16 -719 -5 -150 -18 -362 -59 -419 -80 -20 -8 -66 -25 -102 -39 -170
-63 -315 -134 -350 -172 -22 -24 -22 -23 71 7 140 44 337 93 484 119 173 31
510 33 650 6 111 -23 439 -129 520 -170 114 -56 341 -224 469 -346 140 -133
262 -315 385 -572 156 -326 215 -577 228 -964 7 -222 -5 -367 -46 -566 -44
-210 -111 -332 -258 -469 -112 -106 -317 -226 -490 -290 -35 -12 -63 -24 -63
-26 0 -2 31 -34 69 -71 162 -160 192 -353 100 -641 -52 -162 -88 -228 -180
-331 -150 -167 -272 -248 -522 -346 -301 -117 -586 -175 -1382 -278 l-180 -23
375 0 c286 -1 412 -5 530 -18 446 -49 726 -150 1030 -372 114 -83 245 -220
276 -289 60 -129 66 -279 18 -385 -34 -73 -58 -98 -118 -115 -143 -43 -338 5
-496 121 -33 24 -60 40 -60 35 0 -21 42 -105 79 -159 58 -85 178 -196 242
-225 30 -13 61 -31 70 -39 9 -9 47 -28 85 -43 220 -87 535 -321 629 -468 132
-206 176 -376 156 -599 -17 -200 -49 -276 -224 -544 -292 -447 -462 -797 -551
-1139 -15 -55 -31 -108 -36 -117 -6 -10 -10 -30 -10 -45 0 -16 -5 -46 -12 -68
-6 -22 -11 -46 -9 -53 1 -7 -6 -48 -16 -90 -28 -119 -23 -377 10 -598 14 -94
33 -191 41 -215 9 -24 16 -55 16 -67 0 -13 7 -38 14 -55 16 -35 66 -204 66
-224 0 -6 13 -35 30 -63 16 -28 32 -61 36 -74 5 -23 63 -100 70 -94 2 2 -6 32
-17 67 -38 125 -89 399 -89 484 0 319 65 593 205 863 89 172 113 204 279 375
230 236 515 394 883 489 274 71 547 89 717 46 242 -62 524 -249 642 -428 114
-171 184 -449 172 -686 -1 -39 -2 -72 -1 -72 1 0 23 36 49 80 26 44 78 117
114 163 146 180 282 270 434 284 98 9 138 -8 220 -90 87 -87 149 -187 204
-327 134 -345 198 -639 290 -1339 l17 -134 1 269 c2 341 17 588 49 829 44 326
78 433 182 570 72 95 87 109 137 130 29 12 37 21 33 35 -3 10 0 39 5 64 14 67
81 136 176 183 71 36 81 38 166 37 50 0 114 -4 141 -8 96 -16 321 -141 433
-241 43 -39 52 -43 52 -27 0 81 117 301 207 389 171 168 419 267 771 308 246
29 367 19 627 -51 155 -42 262 -93 580 -274 479 -274 683 -357 960 -394 61 -8
124 -20 140 -27 51 -21 503 -18 650 5 125 19 177 27 310 45 166 24 483 128
654 216 63 32 100 63 41 34 -105 -51 -206 -77 -425 -109 -171 -25 -263 -23
-426 10 -287 59 -553 194 -861 438 -64 51 -146 124 -180 162 -122 133 -212
317 -243 495 -19 109 -19 156 0 270 17 104 30 149 57 187 19 27 19 29 -1 130
-36 180 -44 269 -44 453 0 148 4 195 21 267 27 108 63 198 107 264 38 59 106
98 187 110 l48 6 -58 57 c-71 68 -106 126 -128 210 -19 78 -14 122 26 203 57
115 103 166 442 492 324 312 456 473 553 678 39 81 96 240 89 248 -3 2 -44
-36 -92 -86 -139 -142 -222 -199 -339 -229 -98 -26 -173 -22 -246 13 -81 38
-129 86 -169 170 -30 63 -32 74 -33 182 0 109 2 119 34 190 115 258 296 457
506 556 175 83 386 116 604 95 106 -10 244 -34 326 -57 39 -11 -69 49 -158 88
-131 57 -278 99 -587 168 -307 68 -461 109 -565 150 -205 81 -253 102 -316
140 -87 51 -209 149 -248 198 -71 91 -137 260 -166 428 -34 196 -22 310 57
554 40 124 77 214 303 735 64 149 134 322 156 385 74 214 128 461 165 750 16
130 32 771 19 758 -4 -3 -16 -57 -26 -120 -74 -433 -265 -850 -536 -1170 -56
-66 -351 -313 -470 -394 -207 -140 -451 -237 -676 -269 -171 -24 -480 27 -701
116 -264 105 -396 230 -436 410 -20 91 -8 297 29 473 17 82 31 152 31 155 0 3
-18 -27 -41 -68 -100 -184 -241 -340 -359 -400 -74 -37 -198 -65 -252 -58 -72
10 -144 54 -241 150 -98 97 -163 184 -245 333 -55 99 -173 353 -248 534 -96
232 -267 539 -392 706 -78 104 -206 235 -330 337 -51 42 -95 77 -98 77 -3 0 9
-19 27 -42z"/>
</g>
</svg>